# xmcd CD database file
#
# Track frame offsets:
#	300
#	32445
#	60070
#	87837
#	115002
#	149837
#	166942
#	185112
#	208997
#	236522
#
# Disc length: 3596 seconds
#
# Revision: 0
# Processed by: cddbd v1.5.2PL0 Copyright (c) Steve Scherf et al.
# Submitted via: CDex 1.51
#
DISCID=870e080a
DTITLE=The Jazz Tribe - The Next Step
DYEAR=2000
DGENRE=Jazz
TTITLE0=Mantilla's Jam
TTITLE1=Karita
TTITLE2=River Jordan
TTITLE3=Camino al Cielo
TTITLE4=Ella Dunham
TTITLE5=Percussion Poutpourri
TTITLE6=Chili Plaza Suite
TTITLE7=Good Bait
TTITLE8=Know One Has to Know
TTITLE9=Los Apolypticanos
EXTD=YEAR: 2000
EXTT0=
EXTT1=
EXTT2=
EXTT3=
EXTT4=
EXTT5=
EXTT6=
EXTT7=
EXTT8=
EXTT9=
PLAYORDER=
